# xmcd
#
# Track frame offsets:
#	150
#	21834
#	39063
#	58357
#	90957
#	113877
#	135032
#	165797
#	192831
#	222971
#	241330
#
# Disc length: 3533 seconds
#
# Revision: 0
# Processed by: cddbd v1.5.1PL0 Copyright (c) Steve Scherf et al.
# Submitted via: EasyCDDAExtractor 4.6.9.1
#
DISCID=7e0dcb0b
DTITLE=Depeche Mode - Somebody In Dublin - CD2
DYEAR=1993
DGENRE=live
TTITLE0=A Question Of Lust
TTITLE1=One Caress
TTITLE2=Mercy In You
TTITLE3=I Feel You
TTITLE4=Never Let Me Down Again
TTITLE5=Rush
TTITLE6=In Your Room
TTITLE7=Personal Jesus
TTITLE8=Enjoy The Silence
TTITLE9=Somebody
TTITLE10=Everything Counts
EXTD=
EXTT0=
EXTT1=
EXTT2=
EXTT3=
EXTT4=
EXTT5=
EXTT6=
EXTT7=
EXTT8=
EXTT9=
EXTT10=
PLAYORDER=
